<svg width="50" height="50" viewBox="0 0 50 50" fill="none" xmlns="http://www.w3.org/2000/svg">
<rect width="50" height="50" rx="16" fill="white"/>
<path d="M24.2253 13.7676C22.6749 13.8414 21.383 13.8414 20.091 13.9152C18.6882 13.9891 17.2486 14.0629 15.809 14.2105C15.1814 14.2844 14.517 14.3582 13.8525 14.3951C13.225 14.3951 12.7082 14.6535 12.1914 15.0226C11.1209 15.7978 10.4195 16.7576 10.3088 18.1234C10.235 19.0093 10.0504 19.8584 9.97658 20.7443C9.93967 21.4456 9.82893 22.1839 9.82893 22.8853C9.82893 24.731 9.7551 26.6136 9.97658 28.4593C10.0873 29.7143 10.1611 30.9694 10.4934 32.1876C10.8625 33.5903 12.4867 34.993 13.9633 35.0299C15.1076 35.0668 16.2519 35.2514 17.3963 35.3622C18.0976 35.436 18.7621 35.4729 19.4634 35.5098C22.1212 35.6206 24.779 35.7313 27.3999 35.6575C29.0979 35.6206 30.796 35.5098 32.494 35.3991C33.786 35.3252 35.1149 35.2145 36.4069 35.0299C37.5881 34.8454 38.4371 34.0702 39.1016 33.0735C39.5445 32.446 39.6184 31.6708 39.7291 30.9694C39.8768 29.8989 39.9875 28.8284 40.0983 27.7579C40.1352 27.3519 40.0983 26.9458 40.1352 26.5398C40.1721 25.4323 41.0211 24.3249 42.0178 24.1773C43.2728 23.9927 44.2326 24.3618 44.7863 25.6169C45.0816 26.2444 45.0078 26.9089 44.934 27.5733C44.8601 28.3116 44.8232 29.0499 44.7494 29.7513C44.5648 31.3386 44.5279 32.9258 43.8635 34.4024C42.7191 37.0233 40.7627 38.7951 37.9942 39.6072C37.3666 39.7918 36.6653 39.8656 36.0008 39.9026C34.8196 39.9764 33.6753 40.124 32.494 40.2348C31.6819 40.3086 30.8698 40.3455 30.0946 40.3455C27.9167 40.3824 25.7757 40.567 23.5978 40.4563C21.6783 40.3824 19.7587 40.3455 17.8392 40.2348C16.1043 40.124 14.3693 39.9764 12.6344 39.718C11.2686 39.5334 10.0504 38.869 8.94299 38.02C7.57718 36.8756 6.50668 35.4729 5.95297 33.7379C5.73149 33.0366 5.62075 32.2983 5.51001 31.5969C5.36235 30.6003 5.2147 29.6036 5.17778 28.6069C5.06704 26.6505 4.88247 24.6572 5.10396 22.7007C5.17778 21.9624 5.14087 21.2242 5.25161 20.449C5.36235 19.3785 5.51001 18.308 5.65766 17.2375C5.80532 16.0931 6.13754 14.9857 6.72817 14.026C7.94632 11.9588 9.7551 10.4822 12.1176 9.8178C12.6344 9.67014 13.1881 9.63323 13.7418 9.5594C14.7015 9.44866 15.6982 9.37483 16.6949 9.301C19.205 9.11644 21.7521 8.96878 24.2991 9.00569C25.628 9.04261 26.92 9.00569 28.2489 9.00569C29.3194 9.00569 30.2792 9.92854 30.4638 11.0729C30.6483 12.0326 30.0208 13.1031 29.1349 13.5461C28.4335 13.8783 27.7321 13.8414 26.9939 13.8045C26.4771 13.7676 25.9972 13.7676 25.4804 13.7307C25.0005 13.7676 24.5206 13.7676 24.2253 13.7676Z" fill="#511BC9"/>
<path d="M24.9265 30.6372C20.6814 30.6741 16.6578 27.9425 15.1813 23.9558C14.7383 22.7745 15.292 21.4825 16.4363 20.9658C17.5807 20.449 18.9095 20.8919 19.5002 22.0363C19.8693 22.7745 20.2384 23.5128 20.8291 24.1403C23.7453 27.1304 28.581 26.2075 30.2421 22.3316C30.9435 20.6704 32.9737 20.2275 34.1919 21.5195C34.8932 22.2577 35.004 23.1068 34.6717 24.0665C33.1214 27.9425 29.2454 30.711 24.9265 30.6372Z" fill="#37363E"/>
<path d="M39.766 18.7141C37.4405 18.7879 35.6686 16.8684 35.7055 14.6905C35.7055 12.4387 37.4405 10.6669 39.766 10.6299C42.1285 10.6299 43.8266 12.5864 43.8266 14.7274C43.8266 16.8315 41.9809 18.8248 39.766 18.7141Z" fill="#EF1893"/>
</svg>
