
<svg width="204" height="30" viewBox="0 0 204 30" fill="none" xmlns="http://www.w3.org/2000/svg">
<rect x="107.346" y="0.773775" width="42.0714" height="28.4524" rx="4.41667" fill="white" stroke="#D9D9D9" stroke-width="1.2619"/>
<path d="M131.594 15.1572C131.594 19.8773 127.812 23.7038 123.146 23.7038C118.48 23.7038 114.697 19.8773 114.697 15.1572C114.697 10.4371 118.48 6.61066 123.146 6.61066C127.812 6.61066 131.594 10.4371 131.594 15.1572Z" fill="#ED0006"/>
<path d="M142.555 15.1572C142.555 19.8773 138.773 23.7038 134.107 23.7038C129.441 23.7038 125.658 19.8773 125.658 15.1572C125.658 10.4371 129.441 6.61066 134.107 6.61066C138.773 6.61066 142.555 10.4371 142.555 15.1572Z" fill="#0099DF"/>
<path fill-rule="evenodd" clip-rule="evenodd" d="M128.627 21.662C130.443 20.0944 131.595 17.7619 131.595 15.1572C131.595 12.5525 130.443 10.2199 128.627 8.65234C126.81 10.2199 125.658 12.5525 125.658 15.1572C125.658 17.7619 126.81 20.0944 128.627 21.662Z" fill="#6C6BBD"/>
<rect x="54.1075" y="0.773775" width="42.0714" height="28.4524" rx="4.41667" fill="white" stroke="#D9D9D9" stroke-width="1.2619"/>
<path fill-rule="evenodd" clip-rule="evenodd" d="M75.4522 21.3845C73.9769 22.6577 72.0631 23.4264 69.9719 23.4264C65.3059 23.4264 61.5234 19.5999 61.5234 14.8798C61.5234 10.1597 65.3059 6.33325 69.9719 6.33325C72.0631 6.33325 73.9769 7.10187 75.4522 8.37508C76.9275 7.10188 78.8413 6.33327 80.9325 6.33327C85.5984 6.33327 89.381 10.1597 89.381 14.8798C89.381 19.6 85.5984 23.4264 80.9325 23.4264C78.8413 23.4264 76.9275 22.6578 75.4522 21.3845Z" fill="#ED0006"/>
<path fill-rule="evenodd" clip-rule="evenodd" d="M75.4521 21.3847C77.2686 19.8171 78.4205 17.4846 78.4205 14.8799C78.4205 12.2752 77.2686 9.94263 75.4521 8.37503C76.9274 7.10189 78.8412 6.33331 80.9323 6.33331C85.5983 6.33331 89.3808 10.1597 89.3808 14.8799C89.3808 19.6 85.5983 23.4264 80.9323 23.4264C78.8412 23.4264 76.9274 22.6578 75.4521 21.3847Z" fill="#F9A000"/>
<path fill-rule="evenodd" clip-rule="evenodd" d="M75.4517 21.3847C77.2682 19.8171 78.42 17.4845 78.42 14.8798C78.42 12.2751 77.2682 9.94259 75.4517 8.375C73.6352 9.94259 72.4834 12.2751 72.4834 14.8798C72.4834 17.4845 73.6352 19.8171 75.4517 21.3847Z" fill="#FF5E00"/>
<rect x="0.869234" y="0.773775" width="42.0714" height="28.4524" rx="4.41667" fill="white" stroke="#D9D9D9" stroke-width="1.2619"/>
<path fill-rule="evenodd" clip-rule="evenodd" d="M13.3932 20.272H10.7681L8.79951 12.7619C8.70608 12.4164 8.50769 12.111 8.21586 11.9671C7.48757 11.6054 6.68505 11.3175 5.80957 11.1723V10.8831H10.0385C10.6221 10.8831 11.0599 11.3175 11.1328 11.8219L12.1542 17.2392L14.7781 10.8831H17.3303L13.3932 20.272ZM18.7895 20.272H16.3102L18.3518 10.8831H20.831L18.7895 20.272ZM24.0382 13.4842C24.1112 12.9785 24.5489 12.6894 25.0596 12.6894C25.8621 12.6168 26.7363 12.762 27.4659 13.1224L27.9036 11.101C27.1741 10.8118 26.3716 10.6666 25.6433 10.6666C23.237 10.6666 21.486 11.9671 21.486 13.7721C21.486 15.1452 22.7263 15.8661 23.6018 16.3005C24.5489 16.7336 24.9137 17.0227 24.8407 17.4558C24.8407 18.1054 24.1112 18.3946 23.3829 18.3946C22.5074 18.3946 21.6319 18.178 20.8307 17.8163L20.3929 19.839C21.2684 20.1995 22.2156 20.3447 23.0911 20.3447C25.7892 20.416 27.4659 19.1168 27.4659 17.1666C27.4659 14.7108 24.0382 14.5669 24.0382 13.4842V13.4842ZM36.1435 20.272L34.1749 10.8831H32.0605C31.6227 10.8831 31.185 11.1723 31.0391 11.6054L27.3938 20.272H29.946L30.4554 18.9002H33.5913L33.8831 20.272H36.1435ZM32.425 13.4116L33.1532 16.9501H31.1117L32.425 13.4116Z" fill="#172B85"/>
<rect x="160.631" y="0.630952" width="42.0714" height="28.4524" rx="4.41667" fill="white" stroke="#D9D9D9" stroke-width="1.2619"/>
<g clip-path="url(#clip0_906_1761)">
<path d="M172 5.00018H191.95V15.77L190.963 17.3129L191.95 18.6861V24.9505H172V14.7979L172.617 14.0882L172 13.4093V5.00018Z" fill="#016FD0"/>
<path d="M175.873 18.902V15.7698H179.189L179.545 16.2336L179.913 15.7698H191.951V18.686C191.951 18.686 191.636 18.8988 191.272 18.902H184.606L184.205 18.4082V18.902H182.89V18.0591C182.89 18.0591 182.711 18.1768 182.323 18.1768H181.875V18.902H179.885L179.529 18.4282L179.169 18.902H175.873Z" fill="white"/>
<path d="M172 13.4091L172.748 11.6655H174.041L174.466 12.6422V11.6655H176.073L176.326 12.3714L176.571 11.6655H183.788V12.0204C183.788 12.0204 184.168 11.6655 184.791 11.6655L187.133 11.6737L187.55 12.6376V11.6655H188.895L189.266 12.2192V11.6655H190.623V14.7977H189.266L188.911 14.2423V14.7977H186.934L186.735 14.304H186.204L186.008 14.7977H184.668C184.131 14.7977 183.788 14.4501 183.788 14.4501V14.7977H181.767L181.366 14.304V14.7977H173.85L173.651 14.304H173.121L172.924 14.7977H172V13.4091Z" fill="white"/>
<path d="M173.013 12.0517L172.004 14.397H172.661L172.847 13.9273H173.929L174.114 14.397H174.785L173.777 12.0517H173.013ZM173.386 12.5975L173.716 13.4182H173.055L173.386 12.5975Z" fill="#016FD0"/>
<path d="M174.854 14.3966V12.0513L175.788 12.0547L176.331 13.5668L176.86 12.0513H177.786V14.3966H177.2V12.6684L176.578 14.3966H176.064L175.441 12.6684V14.3966H174.854Z" fill="#016FD0"/>
<path d="M178.188 14.3966V12.0513H180.101V12.5759H178.78V12.977H180.07V13.4708H178.78V13.8874H180.101V14.3966H178.188Z" fill="#016FD0"/>
<path d="M180.439 12.0517V14.397H181.026V13.5638H181.273L181.976 14.397H182.692L181.921 13.5329C182.237 13.5062 182.564 13.2345 182.564 12.8126C182.564 12.319 182.177 12.0517 181.744 12.0517H180.439ZM181.026 12.5763H181.696C181.857 12.5763 181.974 12.7021 181.974 12.8232C181.974 12.979 181.822 13.07 181.705 13.07H181.026V12.5763Z" fill="#016FD0"/>
<path d="M183.402 14.3966H182.804V12.0513H183.402V14.3966Z" fill="#016FD0"/>
<path d="M184.822 14.3966H184.692C184.067 14.3966 183.688 13.904 183.688 13.2336C183.688 12.5466 184.063 12.0513 184.852 12.0513H185.5V12.6067H184.829C184.508 12.6067 184.282 12.8569 184.282 13.2393C184.282 13.6935 184.541 13.8843 184.914 13.8843H185.068L184.822 14.3966Z" fill="#016FD0"/>
<path d="M186.098 12.0517L185.089 14.397H185.746L185.932 13.9273H187.014L187.199 14.397H187.87L186.862 12.0517H186.098ZM186.471 12.5975L186.801 13.4182H186.14L186.471 12.5975Z" fill="#016FD0"/>
<path d="M187.938 14.3966V12.0513H188.684L189.636 13.5248V12.0513H190.222V14.3966H189.501L188.525 12.8845V14.3966H187.938Z" fill="#016FD0"/>
<path d="M176.274 18.5008V16.1555H178.188V16.6801H176.867V17.0813H178.157V17.575H176.867V17.9916H178.188V18.5008H176.274Z" fill="#016FD0"/>
<path d="M185.649 18.5008V16.1555H187.563V16.6801H186.242V17.0813H187.526V17.575H186.242V17.9916H187.563V18.5008H185.649Z" fill="#016FD0"/>
<path d="M178.261 18.5008L179.193 17.3426L178.239 16.1555H178.978L179.546 16.8894L180.116 16.1555H180.826L179.884 17.3282L180.818 18.5008H180.079L179.528 17.7785L178.99 18.5008H178.261Z" fill="#016FD0"/>
<path d="M180.888 16.1559V18.5012H181.489V17.7606H182.107C182.629 17.7606 183.025 17.4836 183.025 16.9448C183.025 16.4984 182.714 16.1559 182.183 16.1559H180.888ZM181.489 16.6863H182.139C182.308 16.6863 182.429 16.7897 182.429 16.9564C182.429 17.1129 182.309 17.2264 182.137 17.2264H181.489V16.6863Z" fill="#016FD0"/>
<path d="M183.279 16.1555V18.5008H183.866V17.6676H184.112L184.815 18.5008H185.532L184.761 17.6368C185.077 17.61 185.404 17.3383 185.404 16.9164C185.404 16.4229 185.016 16.1555 184.584 16.1555H183.279ZM183.866 16.6801H184.536C184.697 16.6801 184.814 16.8059 184.814 16.927C184.814 17.0828 184.662 17.1739 184.545 17.1739H183.866V16.6801Z" fill="#016FD0"/>
<path d="M187.834 18.5008V17.9916H189.008C189.181 17.9916 189.256 17.8978 189.256 17.7949C189.256 17.6963 189.181 17.5966 189.008 17.5966H188.477C188.016 17.5966 187.76 17.3158 187.76 16.8942C187.76 16.5182 187.995 16.1555 188.68 16.1555H189.822L189.575 16.6832H188.587C188.398 16.6832 188.34 16.7823 188.34 16.8768C188.34 16.9741 188.412 17.0813 188.556 17.0813H189.112C189.626 17.0813 189.849 17.3727 189.849 17.7544C189.849 18.1647 189.6 18.5008 189.084 18.5008H187.834Z" fill="#016FD0"/>
<path d="M189.986 18.5008V17.9916H191.159C191.333 17.9916 191.408 17.8978 191.408 17.7949C191.408 17.6963 191.333 17.5966 191.159 17.5966H190.629C190.168 17.5966 189.911 17.3158 189.911 16.8942C189.911 16.5182 190.146 16.1555 190.831 16.1555H191.973L191.726 16.6832H190.739C190.55 16.6832 190.492 16.7823 190.492 16.8768C190.492 16.9741 190.563 17.0813 190.708 17.0813H191.263C191.777 17.0813 192 17.3727 192 17.7544C192 18.1647 191.751 18.5008 191.235 18.5008H189.986Z" fill="#016FD0"/>
</g>
<defs>
<clipPath id="clip0_906_1761">
<rect x="172" y="5" width="20" height="19.9503" rx="5" fill="white"/>
</clipPath>
</defs>
</svg>
